<svg xmlns="http://www.w3.org/2000/svg" width="3000" height="3000" viewBox="0 0 3000 3000" version="1.1"><path d="M 2580 373.905 C 2549.710 386.880, 2510.449 407.018, 2474.500 428.021 C 2340.939 506.050, 2219.062 612.521, 2121.660 736.259 L 2110.830 750.017 2115.165 754.809 C 2117.549 757.445, 2124.623 765.204, 2130.885 772.051 C 2147.644 790.377, 2166.896 813.738, 2167.621 816.626 C 2168.886 821.666, 2163.433 827.832, 2158.757 826.649 C 2157.480 826.326, 2152.303 820.959, 2146.834 814.289 C 2136.502 801.687, 2121.546 784.679, 2108.961 771.220 L 2101.219 762.940 2093.757 773.220 C 2082.473 788.764, 2076 797.958, 2076 798.443 C 2076 798.682, 2084.065 803.002, 2093.921 808.042 C 2108.631 815.564, 2112.056 817.720, 2113.031 820.074 C 2114.031 822.489, 2113.923 823.446, 2112.350 826.140 C 2111.322 827.900, 2109.194 829.769, 2107.620 830.293 C 2105.075 831.142, 2102.656 830.170, 2085.805 821.531 C 2075.381 816.186, 2066.731 811.968, 2066.581 812.157 C 2064.164 815.210, 2037.767 856.829, 2035.171 861.681 C 2034.139 863.610, 2034.988 863.501, 2049.286 859.870 C 2066.289 855.552, 2095.954 849, 2098.499 849 C 2101.025 849, 2106 854.513, 2106 857.312 C 2106 862.557, 2103.565 863.803, 2086 867.540 C 2052.284 874.715, 2024.160 882.409, 2021.832 885.095 C 2017.776 889.774, 1993.280 936.114, 1978.460 967.141 C 1940.968 1045.638, 1911.567 1126.912, 1891.111 1208.598 C 1887.231 1224.089, 1852 1404.368, 1852 1408.727 C 1852 1409.274, 1866.513 1416.386, 1884.250 1424.533 C 2002.686 1478.932, 2039.963 1496.488, 2094.500 1523.556 C 2115.950 1534.202, 2141.600 1547.353, 2151.500 1552.781 C 2167.258 1561.420, 2228.652 1597.341, 2230 1598.711 C 2230.275 1598.990, 2229.600 1599.825, 2228.500 1600.566 C 2223.565 1603.890, 2222.927 1604.946, 2227.329 1602.503 C 2229.984 1601.029, 2232.325 1599.991, 2232.529 1600.196 C 2232.734 1600.401, 2220.813 1643.978, 2206.038 1697.034 L 2179.175 1793.500 2175.607 1834 C 2170.785 1888.736, 2169.533 1903.910, 2166.036 1950 C 2159.865 2031.338, 2153.866 2127.966, 2153.650 2149.500 C 2153.512 2163.350, 2153.683 2164.905, 2155.889 2169.787 C 2158.815 2176.263, 2162.085 2179.001, 2166.885 2178.996 C 2172.406 2178.991, 2176.229 2175.971, 2182.278 2166.840 C 2197.464 2143.915, 2208.848 2115.337, 2214.080 2087 C 2214.740 2083.425, 2215.962 2079.713, 2216.795 2078.750 C 2219.108 2076.078, 2224.583 2076.492, 2227.663 2079.572 C 2230.006 2081.916, 2230.183 2082.651, 2229.640 2087.822 C 2226.494 2117.780, 2228.905 2158.234, 2234.224 2164.750 C 2237.412 2168.655, 2244.245 2163.664, 2249.675 2153.464 C 2258.106 2137.627, 2269.407 2100.389, 2273.033 2076.500 C 2273.701 2072.100, 2274.877 2067.488, 2275.647 2066.250 C 2277.580 2063.141, 2282.968 2063.208, 2286.664 2066.387 C 2289.241 2068.604, 2289.405 2069.192, 2288.969 2074.637 C 2287.941 2087.475, 2288.617 2108.540, 2290.316 2116.659 C 2292.562 2127.389, 2296.736 2140.119, 2298.623 2142 C 2299.962 2143.334, 2300.356 2143.223, 2302.175 2141.003 C 2308.513 2133.267, 2313.732 2116.162, 2316.517 2094 C 2317.380 2087.125, 2319.629 2070.025, 2321.515 2056 C 2334.431 1959.901, 2344.471 1854.287, 2349.986 1756.500 C 2351.237 1734.324, 2351.341 1733.692, 2354.201 1731.028 C 2357.201 1728.233, 2361.531 1728.440, 2364.618 1731.527 C 2367.046 1733.955, 2367.122 1734.401, 2366.549 1742.777 C 2366.220 1747.575, 2365.273 1762.750, 2364.443 1776.500 C 2359.203 1863.349, 2350.196 1956.088, 2337.852 2050.261 C 2335.563 2067.730, 2333.952 2082.285, 2334.273 2082.606 C 2334.593 2082.927, 2355.381 2072.757, 2380.467 2060.006 C 2416.949 2041.463, 2425.978 2036.490, 2425.576 2035.161 C 2422.322 2024.394, 2422.315 2016.099, 2425.513 1962.500 C 2431.653 1859.564, 2438.166 1773.023, 2447.927 1664.669 C 2449.628 1645.784, 2450.015 1643.613, 2452.076 1641.419 C 2454.907 1638.406, 2460.870 1638.094, 2463.345 1640.829 C 2465.527 1643.240, 2465.466 1645.970, 2462.521 1677.778 C 2451.419 1797.661, 2436.940 2009.863, 2438.924 2023.599 C 2441.099 2038.650, 2450.075 2045.583, 2459.441 2039.446 C 2463.153 2037.014, 2472.371 2022.677, 2480.094 2007.324 C 2487.681 1992.241, 2494.756 1971.829, 2498.339 1954.684 C 2501.546 1939.344, 2503.815 1936.784, 2510.941 1940.470 C 2514.526 1942.323, 2515.775 1946.117, 2514.901 1952.500 C 2513.270 1964.425, 2512.839 1984.318, 2513.906 1998.423 C 2515.478 2019.203, 2518.280 2029, 2522.652 2029 C 2525.108 2029, 2531.661 2022.113, 2534.767 2016.268 C 2543.128 2000.537, 2553.050 1968.354, 2557.948 1941.080 C 2559.152 1934.370, 2560.681 1928.905, 2561.654 1927.830 C 2564.212 1925.004, 2568.674 1925.521, 2572.206 1929.052 C 2575.002 1931.849, 2575.204 1932.494, 2574.618 1936.773 C 2572.296 1953.709, 2573.089 1969.494, 2577.060 1985.429 C 2579.766 1996.285, 2580.887 1998.880, 2583.653 2000.692 C 2585.781 2002.087, 2586.242 2002.072, 2588.594 2000.531 C 2596.145 1995.583, 2599.981 1975.131, 2612.515 1873 C 2622.541 1791.297, 2631.064 1695.883, 2635.024 1621 C 2635.649 1609.175, 2636.652 1598.207, 2637.253 1596.627 C 2639.154 1591.624, 2645.840 1590.038, 2650.020 1593.599 C 2651.369 1594.748, 2654.435 1567.107, 2677.402 1346.697 C 2691.627 1210.188, 2704.526 1090.400, 2706.067 1080.500 C 2707.608 1070.600, 2710.023 1055.689, 2711.434 1047.364 C 2712.845 1039.039, 2714 1031.777, 2714 1031.226 C 2714 1030.675, 2709.838 1029.213, 2704.750 1027.977 C 2692.314 1024.957, 2689.165 1023.565, 2688.033 1020.586 C 2686.702 1017.087, 2688.571 1012.273, 2691.934 1010.534 C 2694.371 1009.274, 2695.805 1009.421, 2705.826 1011.956 C 2711.972 1013.511, 2717.007 1014.719, 2717.015 1014.642 C 2717.023 1014.564, 2718.772 1005.275, 2720.903 994 C 2723.033 982.725, 2724.714 973.439, 2724.638 973.364 C 2724.562 973.289, 2719.441 974.155, 2713.258 975.287 C 2700.845 977.561, 2698.288 977.122, 2696.110 972.343 C 2692.622 964.686, 2695.412 962.542, 2713 959.366 C 2720.975 957.926, 2727.594 956.673, 2727.709 956.582 C 2728.368 956.058, 2734.067 926.734, 2733.600 926.267 C 2732.882 925.549, 2714.131 933.248, 2693.604 942.689 C 2684.861 946.710, 2676.502 950, 2675.028 950 C 2669.590 950, 2665.380 942.167, 2668.688 938.203 C 2670.841 935.624, 2695.744 924.022, 2719.500 914.531 C 2728.850 910.796, 2736.978 907.236, 2737.561 906.620 C 2738.145 906.004, 2740.786 895.600, 2743.430 883.500 C 2749.366 856.335, 2764.023 797.297, 2771.483 770.500 C 2804.781 650.898, 2841.895 565.244, 2879.243 521.804 C 2882.409 518.122, 2885 514.947, 2885 514.749 C 2885 514.062, 2868.420 516.059, 2853 518.603 C 2739.068 537.399, 2606.964 594.740, 2493.864 674.490 C 2488.797 678.062, 2484.498 680.831, 2484.310 680.643 C 2484.122 680.455, 2509.175 610.396, 2539.984 524.956 C 2570.793 439.516, 2596 369.248, 2596 368.805 C 2596 367.319, 2593.567 368.094, 2580 373.905 M 1705.500 446.165 C 1685.278 448.447, 1661.108 454.907, 1648 461.532 C 1632.884 469.171, 1615.249 484.590, 1608.145 496.376 C 1603.728 503.706, 1600.196 512.587, 1598.861 519.724 C 1597.360 527.752, 1598.345 543.123, 1600.866 551 C 1608.468 574.747, 1630.018 592.269, 1660.135 599.191 C 1668.675 601.153, 1672.628 601.359, 1705 601.528 C 1746.391 601.743, 1752.701 602.628, 1767.223 610.247 C 1778.144 615.977, 1787.556 629.055, 1791.576 644.087 C 1798.484 669.916, 1785.167 708.695, 1756.112 747.351 C 1737.158 772.569, 1695.721 815.108, 1638.500 868.092 C 1596.396 907.078, 1571.440 931.378, 1561.055 943.500 C 1543.926 963.495, 1531.586 982.131, 1519.812 1005.783 L 1511.706 1022.066 1520.783 1040.783 C 1556.008 1113.421, 1586.594 1192.811, 1608.298 1267.945 C 1611.922 1280.491, 1612.575 1283.921, 1611.775 1286.216 C 1610.626 1289.513, 1608.283 1291, 1604.240 1291 C 1599.441 1291, 1597.585 1287.683, 1592.498 1270.008 C 1577.966 1219.526, 1555.994 1158.410, 1534.127 1107.654 C 1523.171 1082.223, 1505.805 1045, 1504.896 1045 C 1503.408 1045, 1498.597 1069.973, 1497.025 1085.856 C 1495.703 1099.215, 1495.716 1128.305, 1497.052 1143 C 1500.020 1175.659, 1508.384 1216.964, 1519.191 1252.328 L 1522.500 1263.156 1572.403 1285.092 C 1599.849 1297.157, 1622.480 1306.853, 1622.694 1306.639 C 1622.908 1306.426, 1621.459 1300.907, 1619.474 1294.375 C 1612.254 1270.614, 1607.156 1245.442, 1604.914 1222.481 C 1603.166 1204.581, 1604.222 1169.503, 1606.975 1154 C 1612.771 1121.370, 1625.316 1093.228, 1645.090 1068.500 C 1668.945 1038.668, 1707.318 999.780, 1767 944.954 C 1825.860 890.883, 1851.640 864.863, 1873.806 837.158 C 1908.258 794.096, 1927.101 749.036, 1933.488 694.442 C 1935.222 679.614, 1935.488 646.008, 1933.977 632.500 C 1927.957 578.674, 1908.592 534.047, 1877.834 503.120 C 1846.933 472.050, 1803.999 452.192, 1755.441 446.512 C 1741.467 444.878, 1718.328 444.717, 1705.500 446.165 M 2276.083 686.124 C 2267.593 687.258, 2252.034 692.027, 2247.277 694.955 C 2241.678 698.400, 2241.733 706.147, 2247.375 708.851 C 2249.935 710.078, 2250.982 709.914, 2258.352 707.136 C 2271.302 702.255, 2274.738 701.610, 2288 701.569 C 2296.877 701.542, 2302.341 702.036, 2306.852 703.271 C 2312.147 704.721, 2313.644 704.800, 2315.843 703.746 C 2321.285 701.138, 2321.936 693.315, 2316.969 690.213 C 2311.346 686.701, 2288.713 684.438, 2276.083 686.124 M 2603.911 766.871 C 2600.352 769.753, 2600.681 775.714, 2604.550 778.429 C 2615.626 786.203, 2620.093 794.290, 2620.917 808.057 C 2621.373 815.668, 2621.916 818.251, 2623.405 819.896 C 2625.822 822.566, 2630.969 822.657, 2634.139 820.084 C 2636.355 818.287, 2636.495 817.533, 2636.425 807.834 C 2636.366 799.674, 2635.886 796.313, 2634.142 791.854 C 2630.697 783.045, 2624.666 774.552, 2618.313 769.565 C 2611.831 764.476, 2607.800 763.722, 2603.911 766.871 M 2236.500 801.572 C 2232.650 802.417, 2225.225 805.168, 2220 807.685 C 2211.891 811.591, 2209.164 813.597, 2201.381 821.381 C 2193.626 829.136, 2191.572 831.921, 2187.657 840 C 2181.477 852.752, 2179.602 862.104, 2180.242 877 C 2181.102 897.040, 2188.249 913.205, 2202.556 927.468 C 2214.342 939.219, 2226.157 945.596, 2241.628 948.556 C 2268.161 953.632, 2295.214 943.543, 2312.122 922.266 C 2322.795 908.835, 2327.740 895.594, 2328.652 878 C 2329.789 856.070, 2322.586 837.690, 2306.500 821.472 C 2299.921 814.839, 2296.813 812.581, 2289 808.757 C 2283.775 806.200, 2276.800 803.377, 2273.500 802.484 C 2264.841 800.141, 2245.222 799.657, 2236.500 801.572 M 2511.500 847.406 C 2477.978 855.064, 2455 884.181, 2455 919 C 2455 954.128, 2478.068 984.249, 2512.169 993.648 C 2521.939 996.341, 2540.330 996.083, 2550 993.117 C 2570.853 986.721, 2586.985 973.178, 2596.002 954.500 C 2601.173 943.788, 2602.996 936.549, 2603.681 924 C 2605.579 889.254, 2584.707 859.812, 2550.500 848.984 C 2541.581 846.161, 2520.655 845.314, 2511.500 847.406 M 2361.500 990.980 C 2354.633 992.075, 2346.020 995.479, 2341.105 999.039 C 2337.502 1001.649, 2337 1002.492, 2337 1005.934 C 2337 1008.979, 2337.589 1010.318, 2339.635 1011.927 C 2343.183 1014.719, 2344.366 1014.584, 2352.509 1010.457 C 2356.867 1008.249, 2361.603 1006.690, 2365.030 1006.336 C 2376.573 1005.145, 2391.132 1011.545, 2396.682 1020.251 C 2401.184 1027.313, 2403.077 1029, 2406.500 1029 C 2413.507 1029, 2416.103 1021.291, 2411.534 1014.053 C 2401.037 997.426, 2380.490 987.950, 2361.500 990.980 M 2106.720 2053.720 C 2079.974 2149.807, 2058.224 2228.557, 2058.387 2228.720 C 2058.696 2229.029, 2141.994 2183.258, 2143.164 2182.136 C 2143.529 2181.786, 2142.440 2177.450, 2140.743 2172.500 C 2137.999 2164.493, 2137.649 2162.176, 2137.579 2151.500 C 2137.536 2144.900, 2138.297 2127.125, 2139.272 2112 C 2145.946 2008.430, 2149.479 1958.267, 2153.953 1903.540 C 2155.031 1890.361, 2155.786 1879.453, 2155.632 1879.298 C 2155.477 1879.144, 2133.467 1957.634, 2106.720 2053.720" stroke="none" fill="#fbd35b" fill-rule="evenodd"/><path d="M 2007.763 664.565 C 2005 666.064, 2003.535 669.346, 2004.166 672.623 C 2004.355 673.603, 2010.357 679.301, 2017.505 685.287 C 2065.095 725.138, 2109.314 769.118, 2144.904 812 C 2151.067 819.425, 2157.174 825.912, 2158.477 826.416 C 2163.107 828.206, 2168.956 821.945, 2167.621 816.628 C 2166.082 810.495, 2130.965 770.938, 2095.523 735.414 C 2069.114 708.944, 2054.795 695.723, 2030.500 675.378 C 2014.543 662.016, 2013.434 661.488, 2007.763 664.565 M 2276.083 686.124 C 2267.593 687.258, 2252.034 692.027, 2247.277 694.955 C 2241.678 698.400, 2241.733 706.147, 2247.375 708.851 C 2249.935 710.078, 2250.982 709.914, 2258.352 707.136 C 2271.302 702.255, 2274.738 701.610, 2288 701.569 C 2296.877 701.542, 2302.341 702.036, 2306.852 703.271 C 2312.147 704.721, 2313.644 704.800, 2315.843 703.746 C 2321.285 701.138, 2321.936 693.315, 2316.969 690.213 C 2311.346 686.701, 2288.713 684.438, 2276.083 686.124 M 1976.455 757.455 C 1973.755 760.154, 1973.074 765.991, 1975.250 767.786 C 1975.938 768.353, 1986.400 773.397, 1998.500 778.994 C 2010.600 784.591, 2039.543 798.609, 2062.818 810.146 C 2109.297 833.183, 2108.405 832.895, 2112.350 826.140 C 2116.037 819.828, 2114.885 818.862, 2085.694 803.782 C 2041.177 780.785, 1986.265 755, 1981.809 755 C 1980.063 755, 1977.932 755.977, 1976.455 757.455 M 2603.911 766.871 C 2600.352 769.753, 2600.681 775.714, 2604.550 778.429 C 2615.626 786.203, 2620.093 794.290, 2620.917 808.057 C 2621.373 815.668, 2621.916 818.251, 2623.405 819.896 C 2625.822 822.566, 2630.969 822.657, 2634.139 820.084 C 2636.355 818.287, 2636.495 817.533, 2636.425 807.834 C 2636.366 799.674, 2635.886 796.313, 2634.142 791.854 C 2630.697 783.045, 2624.666 774.552, 2618.313 769.565 C 2611.831 764.476, 2607.800 763.722, 2603.911 766.871 M 2236.500 801.572 C 2232.650 802.417, 2225.225 805.168, 2220 807.685 C 2211.891 811.591, 2209.164 813.597, 2201.381 821.381 C 2193.626 829.136, 2191.572 831.921, 2187.657 840 C 2181.477 852.752, 2179.602 862.104, 2180.242 877 C 2181.102 897.040, 2188.249 913.205, 2202.556 927.468 C 2214.342 939.219, 2226.157 945.596, 2241.628 948.556 C 2268.161 953.632, 2295.214 943.543, 2312.122 922.266 C 2322.795 908.835, 2327.740 895.594, 2328.652 878 C 2329.789 856.070, 2322.586 837.690, 2306.500 821.472 C 2299.921 814.839, 2296.813 812.581, 2289 808.757 C 2283.775 806.200, 2276.800 803.377, 2273.500 802.484 C 2264.841 800.141, 2245.222 799.657, 2236.500 801.572 M 2246.477 815.954 C 2232.750 818.064, 2221.507 823.706, 2211.850 833.330 C 2208.632 836.537, 2206 839.574, 2206 840.080 C 2206 840.586, 2208.269 841, 2211.042 841 C 2217.703 841, 2230.075 843.608, 2237.255 846.525 C 2266.655 858.472, 2283.827 885.022, 2282.817 916.973 C 2282.643 922.490, 2282.793 927.003, 2283.151 927.002 C 2284.912 926.996, 2296.691 917.067, 2300.193 912.636 C 2309.089 901.382, 2313.341 889.210, 2313.341 875 C 2313.341 858.665, 2307.481 844.461, 2296.010 832.990 C 2283.204 820.184, 2263.360 813.359, 2246.477 815.954 M 1300.500 841.051 C 1296.100 841.563, 1285.300 842.687, 1276.500 843.550 C 1118.485 859.043, 961.157 911.592, 822 995.356 C 736.295 1046.946, 649.392 1117.208, 608.467 1168 C 592.071 1188.349, 573.668 1221.334, 566.622 1243 C 553.281 1284.023, 551.576 1325.052, 561.074 1376.500 C 564.138 1393.100, 571.373 1420.361, 577.081 1436.817 C 579.882 1444.892, 582.367 1452.400, 582.603 1453.500 C 582.975 1455.232, 572.029 1461.526, 500.896 1500.482 C 455.721 1525.222, 418.569 1545.960, 418.336 1546.566 C 417.858 1547.812, 465.948 1692.774, 485.824 1750 C 577.249 2013.230, 640.999 2164.075, 675.095 2197.855 C 711.090 2233.516, 861.531 2302.530, 1114 2399.200 C 1220.375 2439.930, 1362.631 2491.942, 1477.134 2531.968 L 1497.768 2539.181 1498.373 2542.841 C 1498.706 2544.853, 1498.983 2547.983, 1498.989 2549.795 C 1499.005 2554.501, 1502.762 2558, 1507.800 2558 C 1513.929 2558, 1515.301 2555.737, 1514.862 2546.347 L 1514.500 2538.598 1782.214 2397.049 C 1929.456 2319.197, 2050.199 2255.207, 2050.532 2254.848 C 2050.865 2254.490, 2054.632 2241.440, 2058.904 2225.848 C 2076.642 2161.105, 2155.371 1879.037, 2155.631 1879.297 C 2155.786 1879.452, 2155.031 1890.361, 2153.953 1903.540 C 2148.512 1970.084, 2139.902 2095.875, 2137.323 2146.500 C 2136.238 2167.789, 2143.476 2186.121, 2155.359 2192.183 C 2161.131 2195.128, 2169.518 2195.650, 2176.112 2193.476 C 2185.699 2190.315, 2197.598 2175.275, 2209.122 2151.750 C 2210.941 2148.037, 2212.783 2145, 2213.215 2145 C 2213.647 2145, 2214 2146.778, 2214 2148.951 C 2214 2157.305, 2218.630 2171.721, 2222.791 2176.322 C 2227.968 2182.048, 2238.868 2183.695, 2246.651 2179.927 C 2252.529 2177.082, 2260.232 2168.342, 2264.475 2159.705 C 2266.421 2155.742, 2269.968 2146.931, 2272.357 2140.124 L 2276.699 2127.747 2277.926 2132.624 C 2280.093 2141.236, 2284.941 2151.551, 2288.399 2154.902 C 2292.096 2158.485, 2297.274 2159.734, 2303.551 2158.556 C 2308.668 2157.596, 2315.952 2150.030, 2320.552 2140.898 C 2324.886 2132.290, 2329.336 2115.532, 2331.485 2099.724 C 2347.759 1980.006, 2358.551 1874.167, 2364.443 1776.500 C 2365.273 1762.750, 2366.220 1747.575, 2366.549 1742.777 C 2367.122 1734.401, 2367.046 1733.955, 2364.618 1731.527 C 2361.531 1728.440, 2357.201 1728.233, 2354.201 1731.028 C 2351.341 1733.692, 2351.237 1734.324, 2349.986 1756.500 C 2344.471 1854.287, 2334.431 1959.901, 2321.515 2056 C 2319.629 2070.025, 2317.380 2087.125, 2316.517 2094 C 2313.732 2116.162, 2308.513 2133.267, 2302.175 2141.003 C 2300.356 2143.223, 2299.962 2143.334, 2298.623 2142 C 2296.736 2140.119, 2292.562 2127.389, 2290.316 2116.659 C 2288.617 2108.540, 2287.941 2087.475, 2288.969 2074.637 C 2289.405 2069.192, 2289.241 2068.604, 2286.664 2066.387 C 2282.968 2063.208, 2277.580 2063.141, 2275.647 2066.250 C 2274.877 2067.488, 2273.701 2072.100, 2273.033 2076.500 C 2269.407 2100.389, 2258.106 2137.627, 2249.675 2153.464 C 2244.245 2163.664, 2237.412 2168.655, 2234.224 2164.750 C 2228.905 2158.234, 2226.494 2117.780, 2229.640 2087.822 C 2230.183 2082.651, 2230.006 2081.916, 2227.663 2079.572 C 2224.583 2076.492, 2219.108 2076.078, 2216.795 2078.750 C 2215.962 2079.712, 2214.740 2083.425, 2214.080 2087 C 2208.848 2115.337, 2197.464 2143.915, 2182.278 2166.840 C 2176.229 2175.971, 2172.406 2178.991, 2166.885 2178.996 C 2162.085 2179.001, 2158.815 2176.263, 2155.889 2169.787 C 2153.683 2164.905, 2153.512 2163.350, 2153.650 2149.500 C 2153.866 2127.966, 2159.865 2031.338, 2166.036 1950 C 2169.533 1903.910, 2170.785 1888.736, 2175.607 1834 L 2179.175 1793.500 2206.038 1697.034 C 2220.813 1643.978, 2232.734 1600.401, 2232.529 1600.196 C 2232.325 1599.991, 2229.984 1601.017, 2227.329 1602.475 C 2222.879 1604.918, 2223.094 1604.579, 2228.498 1600.625 C 2229.598 1599.821, 2230.273 1598.947, 2229.998 1598.683 C 2228.762 1597.491, 2168.997 1562.433, 2156 1555.275 C 2110.597 1530.269, 2035.319 1493.859, 1913.350 1437.910 C 1883.568 1424.248, 1855.668 1411.285, 1851.350 1409.104 C 1837.672 1402.192, 1628.362 1308.604, 1623 1307.002 C 1619.575 1305.979, 1529.961 1266.561, 1522.500 1262.796 C 1513.272 1258.139, 1378.610 1199.401, 1245 1141.754 L 1202.500 1123.417 1202.244 1116.958 C 1201.911 1108.541, 1201.362 1106.362, 1198.975 1103.975 C 1196.645 1101.645, 1191.260 1101.360, 1188.441 1103.416 C 1186.817 1104.601, 1186.418 1106.437, 1186 1114.655 L 1185.500 1124.477 892 1285.689 C 730.575 1374.355, 598.242 1446.923, 597.927 1446.950 C 597.204 1447.013, 584.936 1408.699, 581.613 1396 C 572.678 1361.861, 569.019 1320.354, 572.393 1291.413 C 575.864 1261.648, 585.894 1231.677, 600.477 1207.500 C 606.621 1197.313, 622.449 1176.132, 632.608 1164.500 C 649.226 1145.474, 672.127 1124.226, 706 1096.405 C 803.860 1016.031, 921.174 951.402, 1043.500 910.476 C 1127.090 882.510, 1195.075 867.980, 1287 858.437 C 1337.624 853.182, 1359.326 856.880, 1387.613 875.581 C 1398.070 882.494, 1417.849 901.465, 1428.627 914.918 C 1441.851 931.425, 1459.375 957.984, 1473.216 982.500 C 1481.218 996.673, 1506.498 1046.868, 1516.781 1069 C 1547.194 1134.462, 1573.852 1205.230, 1592.498 1270.008 C 1597.585 1287.683, 1599.441 1291, 1604.240 1291 C 1608.283 1291, 1610.626 1289.513, 1611.775 1286.216 C 1612.874 1283.064, 1609.408 1270.054, 1597.330 1232 C 1566.491 1134.834, 1517.061 1023.648, 1469.737 945 C 1461.181 930.779, 1451.659 917.418, 1441.231 905 C 1431.998 894.005, 1410.053 872.361, 1401.907 866.216 C 1386.192 854.361, 1366.627 845.434, 1350 842.533 C 1338.677 840.557, 1311.701 839.749, 1300.500 841.051 M 2511.500 847.406 C 2477.978 855.064, 2455 884.181, 2455 919 C 2455 954.128, 2478.068 984.249, 2512.169 993.648 C 2521.939 996.341, 2540.330 996.083, 2550 993.117 C 2570.853 986.721, 2586.985 973.178, 2596.002 954.500 C 2601.173 943.788, 2602.996 936.549, 2603.681 924 C 2605.579 889.254, 2584.707 859.812, 2550.500 848.984 C 2541.581 846.161, 2520.655 845.314, 2511.500 847.406 M 2080.500 852.462 C 2032.221 863.130, 1992.870 874.988, 1951 891.486 C 1927.994 900.552, 1914.031 906.689, 1911.750 908.738 C 1908.869 911.326, 1909.500 916.401, 1913.077 919.411 C 1914.769 920.835, 1916.803 922, 1917.598 922 C 1918.392 922, 1926.345 918.912, 1935.271 915.138 C 1984.958 894.127, 2034.327 878.538, 2086 867.541 C 2103.565 863.803, 2106 862.557, 2106 857.312 C 2106 854.137, 2100.882 848.977, 2097.827 849.074 C 2096.547 849.114, 2088.750 850.639, 2080.500 852.462 M 2521.500 861.698 C 2509.591 863.277, 2496.263 869.902, 2487.374 878.661 C 2483.868 882.115, 2481 885.405, 2481 885.971 C 2481 886.568, 2483.660 887, 2487.340 887 C 2496.227 887, 2507.878 890.182, 2518.945 895.630 C 2526.723 899.460, 2529.918 901.799, 2537.054 908.890 C 2544.049 915.840, 2546.520 919.139, 2549.870 926 C 2556.006 938.566, 2558.196 948.482, 2557.813 961.970 C 2557.641 968.039, 2557.668 973.003, 2557.873 973.002 C 2558.078 973.001, 2561.069 970.986, 2564.519 968.524 C 2582.567 955.645, 2591.948 931.734, 2587.608 909.675 C 2582.907 885.790, 2564.145 866.993, 2540.487 862.466 C 2533.123 861.057, 2527.917 860.846, 2521.500 861.698 M 2892 869.496 C 2830.185 877.671, 2775.269 891.995, 2719.542 914.480 C 2694.438 924.609, 2670.843 935.615, 2668.688 938.200 C 2665.384 942.164, 2669.589 950, 2675.020 950 C 2676.489 950, 2684.416 946.896, 2692.636 943.103 C 2759.771 912.122, 2834.997 891.279, 2906 883.985 C 2919.563 882.592, 2920.668 882.332, 2923.025 879.975 C 2925.615 877.385, 2925.698 870.942, 2923.171 868.655 C 2920.708 866.426, 2913.810 866.612, 2892 869.496 M 2848.500 944.070 C 2804.198 945.951, 2756.757 951.258, 2714.500 959.059 C 2701.702 961.421, 2698.150 962.434, 2696.750 964.117 C 2694.727 966.550, 2694.544 968.905, 2696.110 972.343 C 2698.313 977.176, 2700.773 977.561, 2714.254 975.181 C 2748.220 969.185, 2778.142 965.264, 2810.692 962.541 C 2836.676 960.368, 2885.201 958.667, 2900.809 959.381 C 2917.877 960.163, 2921 958.883, 2921 951.109 C 2921 947.040, 2918.892 944.900, 2913.941 943.944 C 2908.675 942.928, 2873.829 942.995, 2848.500 944.070 M 2361.500 990.980 C 2354.633 992.075, 2346.020 995.479, 2341.105 999.039 C 2337.502 1001.649, 2337 1002.492, 2337 1005.934 C 2337 1008.979, 2337.589 1010.318, 2339.635 1011.927 C 2343.183 1014.719, 2344.366 1014.584, 2352.509 1010.457 C 2356.867 1008.249, 2361.603 1006.690, 2365.030 1006.336 C 2376.573 1005.145, 2391.132 1011.545, 2396.682 1020.251 C 2401.184 1027.313, 2403.077 1029, 2406.500 1029 C 2413.507 1029, 2416.103 1021.291, 2411.534 1014.053 C 2401.037 997.426, 2380.490 987.950, 2361.500 990.980 M 2691.856 1010.525 C 2686.866 1013.220, 2686.155 1021.418, 2690.702 1023.834 C 2691.691 1024.359, 2700.600 1026.901, 2710.500 1029.484 C 2761.006 1042.657, 2809.051 1059.288, 2855.315 1079.613 C 2872.105 1086.989, 2876.096 1088.014, 2879.087 1085.718 C 2881.169 1084.119, 2883 1080.612, 2883 1078.221 C 2883 1074.359, 2880.412 1072.912, 2851.098 1060.389 C 2807.999 1041.976, 2755.660 1024.335, 2712 1013.507 C 2704.025 1011.529, 2696.825 1009.728, 2696 1009.504 C 2695.175 1009.280, 2693.310 1009.740, 2691.856 1010.525 M 242.589 1064.077 C 239.037 1068.298, 239.316 1071.223, 243.750 1076.227 C 276.653 1113.366, 369.783 1215.400, 371.487 1216.176 C 376.297 1218.368, 382.971 1212.005, 381.598 1206.535 C 381.098 1204.542, 256.577 1065.689, 252.206 1062.250 C 249.359 1060.010, 245.374 1060.766, 242.589 1064.077 M 192.825 1191.038 C 191.904 1191.576, 190.615 1193.636, 189.961 1195.617 C 188.921 1198.769, 189.018 1199.548, 190.737 1201.859 C 191.817 1203.312, 219.656 1221.708, 252.600 1242.739 C 298.984 1272.350, 313.217 1280.981, 315.677 1280.989 C 321.658 1281.010, 325.239 1272.796, 321.250 1268.210 C 319.800 1266.543, 208.162 1194.833, 201.297 1191.159 C 198.683 1189.760, 195.103 1189.709, 192.825 1191.038 M 146 1546.917 C 109.975 1551.736, 79.700 1556.029, 78.722 1556.457 C 74.495 1558.307, 73.686 1565.417, 77.314 1568.826 C 78.587 1570.022, 80.907 1571, 82.470 1571 C 84.033 1571, 114.604 1567.160, 150.405 1562.467 C 212.172 1554.371, 215.624 1553.811, 217.917 1551.528 C 222.421 1547.042, 220.236 1539.852, 214 1538.641 C 212.625 1538.374, 182.025 1542.098, 146 1546.917 M 2641.421 1592.427 C 2639.643 1593.197, 2637.881 1594.972, 2637.252 1596.630 C 2636.652 1598.208, 2635.649 1609.175, 2635.024 1621 C 2631.064 1695.883, 2622.541 1791.297, 2612.515 1873 C 2599.981 1975.131, 2596.145 1995.583, 2588.594 2000.531 C 2586.242 2002.072, 2585.781 2002.087, 2583.653 2000.692 C 2580.887 1998.880, 2579.766 1996.285, 2577.060 1985.429 C 2573.089 1969.494, 2572.296 1953.709, 2574.618 1936.773 C 2575.204 1932.494, 2575.002 1931.849, 2572.206 1929.052 C 2568.674 1925.521, 2564.212 1925.004, 2561.654 1927.830 C 2560.681 1928.905, 2559.152 1934.370, 2557.948 1941.080 C 2553.050 1968.354, 2543.128 2000.537, 2534.767 2016.268 C 2531.661 2022.113, 2525.108 2029, 2522.652 2029 C 2518.280 2029, 2515.478 2019.203, 2513.906 1998.423 C 2512.839 1984.318, 2513.270 1964.425, 2514.901 1952.500 C 2515.775 1946.117, 2514.526 1942.323, 2510.941 1940.470 C 2503.815 1936.784, 2501.546 1939.344, 2498.339 1954.684 C 2494.756 1971.829, 2487.681 1992.241, 2480.094 2007.324 C 2472.371 2022.677, 2463.153 2037.014, 2459.441 2039.446 C 2450.075 2045.583, 2441.099 2038.650, 2438.924 2023.599 C 2436.940 2009.863, 2451.419 1797.661, 2462.521 1677.778 C 2465.529 1645.291, 2465.572 1642.828, 2463.171 1640.655 C 2460.398 1638.146, 2454.788 1638.532, 2452.076 1641.419 C 2449.597 1644.058, 2449.897 1641.499, 2443.558 1714 C 2434.979 1812.124, 2423.013 1986.941, 2423.004 2014.303 C 2422.994 2041.477, 2433.748 2057.135, 2452.543 2057.312 C 2467.176 2057.450, 2476.405 2048.467, 2491.798 2019.101 L 2498.750 2005.840 2499.443 2013.237 C 2500.273 2022.089, 2503.820 2032.765, 2507.564 2037.672 C 2515.683 2048.317, 2530.943 2046.807, 2542.006 2034.266 C 2547.350 2028.209, 2551.130 2020.763, 2557.013 2004.707 L 2561.701 1991.914 2563.987 1998.186 C 2568.463 2010.460, 2574.565 2016.293, 2584.331 2017.632 C 2597.367 2019.419, 2607.358 2008.342, 2612.862 1986 C 2614.014 1981.325, 2617.011 1961.750, 2619.524 1942.500 C 2622.036 1923.250, 2624.501 1904.575, 2625.002 1901 C 2634.400 1833.895, 2647.085 1697.388, 2651.141 1619.719 C 2652.347 1596.626, 2652.326 1595.884, 2650.441 1594.074 C 2647.656 1591.398, 2644.943 1590.903, 2641.421 1592.427 M 2066 1949.615 C 2036.928 1960.339, 1991.113 1972.860, 1965.182 1977.169 L 1951.154 1979.500 1951.714 1982.500 C 1953.121 1990.049, 1960.365 2004.305, 1964.859 2008.372 C 1966.600 2009.948, 1966.876 2009.762, 1970.199 2004.767 C 1977.430 1993.899, 1990.178 1982.817, 2002.500 1976.687 C 2014.437 1970.748, 2022.084 1968.832, 2036 1968.293 C 2051.310 1967.701, 2060.001 1969.316, 2071.699 1974.927 L 2079.899 1978.859 2080.578 1974.328 C 2081.829 1965.988, 2079.057 1947.095, 2076.478 1946.381 C 2075.940 1946.232, 2071.225 1947.687, 2066 1949.615 M 371.500 2111.409 C 285.150 2151.760, 213.263 2185.479, 211.750 2186.340 C 205.955 2189.642, 209.797 2200, 216.816 2200 C 220.247 2200, 533.333 2054.355, 536.750 2051.169 C 537.987 2050.015, 539 2047.955, 539 2046.591 C 539 2043.231, 535.164 2039.103, 531.500 2038.521 C 529.079 2038.136, 498.196 2052.205, 371.500 2111.409 M 2341.997 2206.085 C 2267.473 2245.182, 2205.938 2277.893, 2205.250 2278.776 C 2201.763 2283.256, 2205.744 2291, 2211.533 2291 C 2214.082 2291, 2248.142 2273.554, 2349.079 2220.548 C 2422.866 2181.799, 2484.083 2149.329, 2485.118 2148.393 C 2487.254 2146.460, 2487.578 2141.336, 2485.718 2138.913 C 2484.281 2137.041, 2480.679 2135, 2478.812 2135 C 2478.087 2135, 2416.520 2166.988, 2341.997 2206.085 M 1648 2186.984 C 1622.382 2212.794, 1595.706 2236.185, 1576.743 2249.467 C 1574.573 2250.987, 1574.580 2251.006, 1579.533 2256.119 C 1584.570 2261.318, 1595.641 2269.158, 1599.750 2270.435 C 1601.873 2271.095, 1602 2270.857, 1602 2266.227 C 1602 2254.422, 1608.754 2237.011, 1618.139 2224.623 C 1631.709 2206.712, 1657.927 2193.467, 1681.254 2192.739 L 1688.702 2192.506 1687.738 2189.003 C 1686.275 2183.690, 1682.713 2177.146, 1677.527 2170.248 C 1674.954 2166.825, 1672.546 2163.864, 1672.175 2163.667 C 1671.804 2163.470, 1660.925 2173.963, 1648 2186.984 M 465.186 2243.122 C 390.496 2280.888, 368.678 2292.118, 366.750 2293.791 C 362.995 2297.050, 366.029 2305.038, 371.549 2306.423 C 375.295 2307.363, 522.696 2232.930, 524.028 2229.426 C 525.796 2224.775, 521.027 2218, 515.986 2218 C 515.373 2218, 492.513 2229.305, 465.186 2243.122 M 2315.073 2387.912 C 2273.731 2408.922, 2241.837 2425.718, 2240.761 2427.046 C 2239.495 2428.610, 2239.074 2430.215, 2239.476 2431.937 C 2240.257 2435.278, 2244.477 2439, 2247.484 2439 C 2251.201 2439, 2397.243 2364.622, 2398.337 2362.172 C 2400.464 2357.404, 2395.959 2350.960, 2390.561 2351.052 C 2388.585 2351.085, 2361.841 2364.144, 2315.073 2387.912 M 1889.500 2480.163 C 1811.952 2520.313, 1626.054 2618.608, 1624.750 2620.151 C 1622.144 2623.235, 1622.595 2626.749, 1626.040 2630.194 C 1628.407 2632.561, 1629.680 2633.113, 1631.790 2632.685 C 1633.281 2632.384, 1695.250 2600.231, 1769.500 2561.235 C 1870.857 2508.002, 1904.856 2489.702, 1905.928 2487.804 C 1907.972 2484.185, 1905.802 2479.233, 1901.360 2477.377 C 1899.547 2476.620, 1897.937 2476.005, 1897.782 2476.010 C 1897.627 2476.016, 1893.900 2477.885, 1889.500 2480.163" stroke="none" fill="#bc75f3" fill-rule="evenodd"/></svg>