<?xml version="1.0" encoding="UTF-8"?>
<!-- Generator: visioncortex VTracer 0.6.3 -->
<svg version="1.1" xmlns="http://www.w3.org/2000/svg" width="1280" height="828">
<path d="M0 0 C2.49 2.19 4.98 4.38 7.48 6.57 C20.13 18.78 30.99 33.21 38.19 49.24 C39.36 51.79 40.73 54.22 42.06 56.69 C62.55 97.88 61.77 146.71 62.55 191.57 C62.58 193.36 62.58 193.36 62.61 195.19 C63.07 221.6 63.15 248.01 63.13 274.42 C63.12 280.74 63.13 287.05 63.13 293.37 C63.15 319.73 63.01 346.08 62.55 372.43 C62.53 373.58 62.51 374.73 62.49 375.91 C61.62 424.4 60.47 473.28 37 517 C36 519 35 521 34 523 C25.65 539.07 11.95 554.59 -2 566 C-2.54 566.45 -3.08 566.89 -3.63 567.35 C-16.86 578.28 -29.96 586.22 -45.73 593.01 C-47.59 593.82 -49.44 594.66 -51.29 595.51 C-60.19 599.5 -69.55 601.72 -79 604 C-79.77 604.19 -80.54 604.38 -81.34 604.58 C-83.6 605.13 -85.86 605.66 -88.12 606.19 C-88.77 606.34 -89.41 606.5 -90.07 606.66 C-103.16 609.6 -116.82 610.38 -130.19 611.06 C-131.38 611.12 -131.38 611.12 -132.59 611.19 C-228.89 615.99 -329.5 618.66 -457 604 C-458.5 603.62 -460.01 603.25 -461.52 602.88 C-470.72 600.58 -479.35 597.95 -488 594 C-489.55 593.34 -491.1 592.69 -492.65 592.04 C-509.19 584.98 -522.58 575.87 -536 564 C-537.27 562.92 -537.27 562.92 -538.56 561.81 C-542.81 558.14 -546.64 554.34 -550.26 550.05 C-551.44 548.66 -552.66 547.29 -553.89 545.95 C-577.52 520.42 -590.17 486.02 -595 452 C-595.16 450.92 -595.32 449.83 -595.48 448.72 C-598.95 424.22 -599.13 399.26 -599.55 374.56 C-599.57 373.36 -599.59 372.17 -599.61 370.94 C-600.08 343.92 -600.15 316.9 -600.13 289.87 C-600.12 283.31 -600.13 276.75 -600.13 270.19 C-600.15 243.26 -600.03 216.34 -599.55 189.41 C-599.53 188.26 -599.51 187.12 -599.49 185.93 C-598.63 138.01 -597.37 89.14 -574 46 C-573.69 45.41 -573.38 44.82 -573.06 44.21 C-563.3 25.68 -549.47 8.04 -533 -5 C-532.51 -5.41 -532.02 -5.82 -531.51 -6.24 C-515.37 -19.6 -496.02 -29.79 -476 -36 C-475.19 -36.25 -474.37 -36.51 -473.53 -36.77 C-451.57 -43.49 -429.73 -46.89 -406.81 -48.06 C-406.02 -48.1 -405.22 -48.14 -404.41 -48.19 C-306.55 -53.07 -204.44 -55.65 0 0 Z M-365.73 11.45 C-366.71 11.47 -367.68 11.49 -368.69 11.51 C-420.65 12.23 -420.65 12.23 -470 27 C-470.85 27.37 -471.7 27.75 -472.57 28.13 C-498.08 40.11 -517.5 63.34 -527.62 89.31 C-534.49 109.7 -536.56 131.02 -537.51 152.37 C-537.55 153.32 -537.6 154.28 -537.64 155.26 C-538.06 164.98 -538.35 174.71 -538.55 184.44 C-538.58 185.4 -538.6 186.37 -538.62 187.37 C-539.23 216.57 -539.15 245.77 -539.13 274.97 C-539.12 280.44 -539.13 285.9 -539.13 291.37 C-539.17 335.55 -539.17 335.55 -538.55 379.73 C-538.52 381.12 -538.52 381.12 -538.49 382.53 C-537.08 452.38 -537.08 452.38 -504 512 C-503.02 513.11 -503.02 513.11 -502.01 514.24 C-471.97 546.34 -424.56 549.63 -383.43 551.09 C-377.31 551.29 -371.19 551.43 -365.06 551.55 C-364.07 551.58 -363.07 551.6 -362.05 551.62 C-333 552.21 -303.95 552.15 -274.9 552.13 C-269.54 552.12 -264.17 552.13 -258.8 552.13 C-229.45 552.15 -200.11 552.17 -170.77 551.55 C-169.81 551.53 -168.86 551.51 -167.88 551.49 C-119.63 550.44 -69.98 549.13 -33.98 512.58 C-13.58 490.89 -4.79 464.38 -1.31 435.31 C-1.19 434.32 -1.07 433.33 -0.95 432.31 C1.05 414.09 1.2 395.63 1.55 377.31 C1.58 376.25 1.6 375.18 1.62 374.08 C2.16 345.56 2.15 317.05 2.13 288.53 C2.12 283.45 2.13 278.37 2.13 273.3 C2.15 244.35 2.12 215.41 1.55 186.46 C1.53 185.44 1.51 184.41 1.49 183.35 C1.25 118.51 1.25 118.51 -25 61 C-25.55 60.25 -26.11 59.49 -26.68 58.72 C-35.7 46.49 -46.73 37.24 -60 30 C-60.92 29.44 -60.92 29.44 -61.85 28.87 C-68.2 25.08 -74.73 22.92 -81.81 20.88 C-83.61 20.35 -83.61 20.35 -85.45 19.82 C-112.97 12.1 -141.86 12.03 -170.27 11.45 C-171.81 11.42 -171.81 11.42 -173.38 11.39 C-202.62 10.8 -231.86 10.85 -261.11 10.87 C-266.47 10.88 -271.82 10.87 -277.18 10.87 C-306.7 10.85 -336.22 10.84 -365.73 11.45 Z M2 213 C3 215 3 215 3 215 Z M2 349 C3 352 3 352 3 352 Z " fill="#F8F8F8" transform="translate(908,132)"/>
<path d="M0 0 C2.26 1.97 4.48 3.99 6.7 6.01 C8.74 7.82 10.91 9.44 13.1 11.06 C16.63 13.76 19.45 16.68 22.29 20.09 C24.45 22.65 26.74 25.06 29.04 27.5 C37.54 36.85 44.17 47.4 50.17 58.49 C50.83 59.7 51.5 60.91 52.17 62.11 C61.7 79.19 66.71 97.99 69.16 117.31 C69.29 118.25 69.42 119.19 69.55 120.16 C74.4 161.91 62.63 206.74 36.6 239.87 C31.41 246.27 25.84 252.34 20.16 258.31 C19.24 259.29 19.24 259.29 18.3 260.29 C6.66 272.37 -7.31 281.35 -21.95 289.28 C-23.58 290.17 -25.19 291.07 -26.8 291.97 C-62.73 311.25 -109.53 313.2 -148.19 301.81 C-173.97 293.71 -195.23 280.38 -215.36 262.6 C-216.59 261.53 -217.84 260.5 -219.11 259.48 C-225.27 254.5 -229.78 248.24 -234.55 241.97 C-236.29 239.73 -238.13 237.59 -239.96 235.43 C-247.59 225.93 -253.16 214.5 -257.84 203.31 C-258.33 202.16 -258.82 201.01 -259.33 199.83 C-276.03 160.19 -274.56 114.24 -258.96 74.5 C-254.01 62.7 -248.55 51.56 -240.84 41.31 C-240.24 40.44 -239.63 39.57 -239.01 38.68 C-233.86 31.32 -228.03 24.78 -221.84 18.31 C-221.02 17.44 -220.21 16.57 -219.37 15.68 C-210.02 5.98 -199.35 -1.72 -187.84 -8.69 C-186.97 -9.25 -186.09 -9.82 -185.19 -10.39 C-131.42 -43.83 -49.15 -41.42 0 0 Z M-141.84 36.31 C-143.22 36.9 -144.61 37.5 -145.99 38.09 C-155.25 42.16 -163.07 46.76 -170.84 53.31 C-171.72 54.04 -172.61 54.77 -173.52 55.53 C-193.37 72.64 -206.38 98.39 -209.65 124.37 C-209.75 126.02 -209.81 127.66 -209.84 129.31 C-209.86 129.94 -209.88 130.57 -209.9 131.22 C-210.73 161.47 -202.44 190.29 -181.63 212.86 C-176.5 218.23 -171.3 223.21 -164.91 227.06 C-162.84 228.31 -162.84 228.31 -160.99 229.71 C-147.2 240.05 -125.93 246.77 -108.84 247.31 C-108.2 247.33 -107.55 247.35 -106.89 247.37 C-77.33 248.17 -48.94 239.88 -26.98 219.36 C-26.27 218.68 -25.57 218.01 -24.84 217.31 C-23.99 216.5 -23.15 215.7 -22.28 214.87 C-21.47 214.03 -20.67 213.18 -19.84 212.31 C-19.16 211.6 -18.49 210.9 -17.79 210.17 C-2.07 193.34 8.45 169.51 9.16 146.31 C9.2 145.09 9.24 143.86 9.28 142.6 C9.81 118.08 3.79 90.17 -12.84 71.31 C-13.89 69.92 -14.94 68.53 -15.96 67.12 C-31.13 46.53 -55.76 33.47 -80.84 29.31 C-101.38 26.44 -122.82 27.66 -141.84 36.31 Z " fill="#F8F8F8" transform="translate(739.839599609375,275.691162109375)"/>
<path d="M0 0 C10.16 7.04 16.42 16.96 19 29 C20.44 42.12 17.31 52.03 9.34 62.42 C2.9 70.08 -6.11 73.99 -16 75 C-28.02 75.88 -37.34 72.76 -47.06 65.81 C-47.7 65.21 -48.34 64.62 -49 64 C-49 63.34 -49 62.68 -49 62 C-49.99 61.67 -50.98 61.34 -52 61 C-53.75 58.74 -53.75 58.74 -55.56 55.88 C-56.16 54.94 -56.76 54.01 -57.38 53.05 C-62.19 43.98 -62.42 33.3 -60.2 23.42 C-56.46 12.56 -49.3 4.12 -39 -1 C-38.29 -1.39 -37.57 -1.78 -36.84 -2.18 C-25.07 -7.86 -11.19 -6.2 0 0 Z " fill="#F8F8F8" transform="translate(837,202)"/>
<path d="M0 0 C0.33 0 0.66 0 1 0 C1 1.65 1 3.3 1 5 C0.67 5 0.34 5 0 5 C0 3.35 0 1.7 0 0 Z " fill="#F9F9F9" transform="translate(775,235)"/>
</svg>
